<svg width="534" height="225" viewBox="0 0 534 225" fill="none" xmlns="http://www.w3.org/2000/svg">
<path opacity="0.19" d="M595.117 137.995L593.117 140.867L595.117 137.995ZM187.512 110.934L188.595 107.606L187.512 110.934ZM3.65469 4.98323C1.74342 5.2724 0.428477 7.0562 0.717637 8.96744L5.43013 40.113C5.71929 42.0242 7.50309 43.3391 9.41436 43.05C11.3256 42.7608 12.6405 40.977 12.3514 39.0657L8.16251 11.3808L35.8474 7.19198C37.7587 6.90281 39.0736 5.11901 38.7844 3.20775C38.4952 1.29652 36.7114 -0.0184241 34.8002 0.270765L3.65469 4.98323ZM675.498 222.027C678.357 220.009 678.357 220.008 678.356 220.007C678.356 220.007 678.355 220.006 678.354 220.005C678.353 220.003 678.351 220 678.348 219.996C678.343 219.988 678.335 219.977 678.325 219.963C678.304 219.934 678.275 219.893 678.236 219.838C678.158 219.729 678.043 219.568 677.893 219.358C677.591 218.939 677.146 218.323 676.567 217.532C675.408 215.949 673.71 213.661 671.544 210.828C667.214 205.163 661.008 197.311 653.499 188.55C638.518 171.074 618.194 149.8 597.117 135.123L595.117 137.995L593.117 140.867C613.463 155.036 633.33 175.778 648.184 193.106C655.591 201.748 661.714 209.495 665.983 215.079C668.117 217.87 669.786 220.119 670.919 221.667C671.486 222.441 671.918 223.039 672.208 223.442C672.352 223.644 672.461 223.797 672.534 223.898C672.57 223.949 672.597 223.987 672.614 224.011C672.623 224.024 672.629 224.033 672.633 224.038C672.635 224.041 672.637 224.043 672.638 224.045C672.638 224.045 672.638 224.045 672.638 224.046C672.638 224.046 672.638 224.046 675.498 222.027ZM595.117 137.995L597.117 135.123C533.233 90.6371 469.631 97.0158 403.119 107.609C336.428 118.23 266.765 133.059 188.595 107.606L187.512 110.934L186.428 114.262C266.517 140.34 338.001 125.068 404.22 114.522C470.617 103.947 531.688 98.091 593.117 140.867L595.117 137.995ZM187.512 110.934L188.595 107.606C149.345 94.826 103.809 69.394 67.9416 47.0305C50.0407 35.8693 34.6096 25.5115 23.6551 17.945C18.1785 14.1622 13.8227 11.0783 10.8387 8.94213C9.34679 7.87406 8.19788 7.04298 7.42346 6.48C7.03625 6.19851 6.74263 5.98405 6.5466 5.84052C6.44861 5.76876 6.37493 5.71471 6.32618 5.67889C6.3018 5.66098 6.28365 5.64763 6.27178 5.63889C6.26582 5.63451 6.26148 5.6313 6.25865 5.62923C6.2573 5.62822 6.25635 5.62754 6.25568 5.62703C6.25515 5.62665 6.25505 5.62657 4.17828 8.44384C2.10151 11.2611 2.10219 11.2616 2.10323 11.2624C2.10412 11.263 2.10558 11.2641 2.10736 11.2654C2.11092 11.268 2.11604 11.2718 2.12274 11.2767C2.13612 11.2866 2.15579 11.3011 2.18168 11.3201C2.23353 11.3582 2.31023 11.4145 2.41136 11.4885C2.61368 11.6366 2.91369 11.8558 3.30745 12.142C4.09498 12.7145 5.25769 13.5556 6.76403 14.6339C9.77673 16.7907 14.1648 19.8973 19.6767 23.7046C30.6993 31.3181 46.2239 41.7387 64.238 52.9705C100.2 75.3932 146.331 101.206 186.428 114.262L187.512 110.934Z" fill="#D96F32"/>
</svg>
