<svg width="641" height="631" viewBox="0 0 641 631" fill="none" xmlns="http://www.w3.org/2000/svg">
<path d="M547 1.5C588.451 1.5 612.546 14.3955 625.602 35.7793C638.721 57.2673 640.856 87.5645 637.755 122.727C634.656 157.862 626.358 197.61 618.814 237.904C611.278 278.16 604.5 318.94 604.5 356C604.5 429.879 596.014 498.401 566.839 548.432C552.264 573.425 532.527 593.802 506.089 607.938C479.645 622.076 446.443 630 404.902 630C321.819 630 224.516 594.993 146.192 534.496C67.8755 474.004 8.64732 388.118 1.49805 286.43C-2.39876 230.962 19.2294 185.454 56.541 148.343C93.8773 111.207 146.907 82.4959 205.715 60.7236C323.328 17.1797 463.75 1.50001 547 1.5Z" stroke="black" stroke-width="2"/>
</svg>
